<svg width="24" height="24" xmlns="http://www.w3.org/2000/svg">

 <g>
  <title>Layer 1</title>
  <path id="path_0" d="m9.18,5.5c0.15,0 0.28,0.06 0.38,0.17c0.03,0.04 0.07,0.07 0.1,0.11l2.4,2.3c0.28,0.27 0.65,0.42 1.04,0.42l7,0c0.28,0 0.5,0.22 0.5,0.5l0,9c0,0.28 -0.22,0.5 -0.5,0.5l-16.2,0c-0.28,0 -0.5,-0.22 -0.5,-0.5l0,-12c0,-0.28 0.22,-0.5 0.5,-0.5l5.29,0m0,-1.5l-5.29,0c-1.1,0 -2,0.9 -2,2l0,12c0,1.1 0.9,2 2,2l16.21,0c1.1,0 2,-0.9 2,-2l0,-9c0,-1.1 -0.9,-2 -2,-2l-7,0l-2.4,-2.3c-0.38,-0.44 -0.93,-0.7 -1.52,-0.7l0,0z" fill="#ffffff"/>
 </g>
</svg>