<svg width="24" height="24" xmlns="http://www.w3.org/2000/svg">

 <g>
  <title>Layer 1</title>
  <path id="path_0" d="m9.2,20.3c0,0.4 -0.3,0.8 -0.8,0.8l-3.2,0c-1.2,0 -2.3,-1 -2.3,-2.3l0,-3.3c0,-0.4 0.3,-0.8 0.8,-0.8s0.8,0.3 0.8,0.8l0,3.3c0,0.4 0.3,0.8 0.8,0.8l3.3,0c0.3,0 0.6,0.3 0.6,0.7zm-0.7,-17.4l-3.3,0c-1.2,0 -2.3,1 -2.3,2.3l0,3.3c0,0.4 0.3,0.8 0.8,0.8s0.8,-0.3 0.8,-0.8l0,-3.3c0,-0.4 0.3,-0.8 0.8,-0.8l3.3,0c0.4,0 0.8,-0.3 0.8,-0.8s-0.5,-0.7 -0.9,-0.7zm11.8,11.9c-0.4,0 -0.8,0.3 -0.8,0.8l0,3.3c0,0.4 -0.3,0.8 -0.8,0.8l-3.3,0c-0.4,0 -0.8,0.3 -0.8,0.8s0.3,0.8 0.8,0.8l3.3,0c1.2,0 2.3,-1 2.3,-2.3l0,-3.3c0.1,-0.6 -0.3,-0.9 -0.7,-0.9zm-1.5,-11.9l-3.3,0c-0.4,0 -0.8,0.3 -0.8,0.8s0.3,0.8 0.8,0.8l3.3,0c0.4,0 0.8,0.3 0.8,0.8l0,3.3c0,0.4 0.3,0.8 0.8,0.8s0.8,-0.3 0.8,-0.8l0,-3.4c-0.1,-1.3 -1.1,-2.3 -2.4,-2.3zm-10,12.4l0,-6.6c0,-0.4 -0.4,-0.7 -0.8,-0.7s-0.7,0.3 -0.7,0.7l0,6.5c0,0.5 0.3,0.8 0.7,0.8s0.8,-0.3 0.8,-0.7zm3.2,-9.3c-0.4,0 -0.8,0.3 -0.8,0.8l0,10.5c0,0.4 0.3,0.8 0.8,0.8s0.8,-0.3 0.8,-0.8l0,-10.6c0,-0.4 -0.4,-0.7 -0.8,-0.7zm4.8,9.3l0,-6.6c0,-0.4 -0.4,-0.7 -0.8,-0.7s-0.8,0.3 -0.8,0.8l0,6.5c0,0.4 0.3,0.8 0.8,0.8s0.8,-0.4 0.8,-0.8z" fill="#ffffff"/>
 </g>
</svg>