<svg width="24" height="24" xmlns="http://www.w3.org/2000/svg">

 <g>
  <title>Layer 1</title>
  <path id="path_0" d="m12,4.38c0.09,0 0.18,0.03 0.26,0.07l6.92,4.26s0.04,0.02 0.06,0.03c0.16,0.09 0.26,0.26 0.26,0.44l0,9.82c0,0.28 -0.22,0.5 -0.5,0.5l-3.02,0c-0.28,0 -0.5,-0.22 -0.5,-0.5l0,-4c0,-0.83 -0.67,-1.5 -1.5,-1.5l-3.98,0c-0.83,0 -1.5,0.67 -1.5,1.5l0,4c0,0.28 -0.22,0.5 -0.5,0.5l-3,0c-0.28,0 -0.5,-0.22 -0.5,-0.5l0,-9.82c0,-0.18 0.1,-0.35 0.26,-0.44c0.02,-0.01 0.04,-0.02 0.06,-0.03l6.92,-4.26c0.08,-0.05 0.17,-0.07 0.26,-0.07m0,-1.5c-0.36,0 -0.73,0.1 -1.05,0.3l-6.92,4.26c-0.63,0.35 -1.03,1.02 -1.03,1.75l0,9.82c0,1.1 0.9,2 2,2l3,0c1.1,0 2,-0.9 2,-2l0,-4l3.98,0l0,4c0,1.1 0.9,2 2,2l3.02,0c1.1,0 2,-0.9 2,-2l0,-9.82c0,-0.73 -0.39,-1.4 -1.03,-1.75l-6.92,-4.26c-0.32,-0.2 -0.68,-0.3 -1.05,-0.3l0,0z" fill="#ffffff"/>
 </g>
</svg>