<svg width="24" height="24" xmlns="http://www.w3.org/2000/svg">

 <g>
  <title>Layer 1</title>
  <path id="path_0" d="m19,3l-14,0c-1.1,0 -2,0.9 -2,2l0,14c0,1.1 0.9,2 2,2l14,0c1.1,0 2,-0.9 2,-2l0,-14c0,-1.1 -0.9,-2 -2,-2zm0.5,16c0,0.3 -0.2,0.5 -0.5,0.5l-14,0c-0.3,0 -0.5,-0.2 -0.5,-0.5l0,-14c0,-0.3 0.2,-0.5 0.5,-0.5l14,0c0.3,0 0.5,0.2 0.5,0.5l0,14zm-1.3,-1.5c0,0.4 -0.3,0.8 -0.8,0.8s-0.8,-0.3 -0.8,-0.8c0,-1.7 -1.3,-3 -3,-3l-3.5,0c-1.7,0 -3,1.3 -3,3c0,0.4 -0.3,0.8 -0.8,0.8s-0.8,-0.3 -0.8,-0.8c0,-2.5 2,-4.5 4.5,-4.5l3.5,0c2.8,0 4.7,2 4.7,4.5zm-6.2,-5.5c1.7,0 3,-1.3 3,-3s-1.3,-3 -3,-3s-3,1.3 -3,3s1.3,3 3,3zm0,-4.5c0.8,0 1.5,0.7 1.5,1.5s-0.7,1.5 -1.5,1.5s-1.5,-0.7 -1.5,-1.5s0.7,-1.5 1.5,-1.5z" fill="#ffffff"/>
 </g>
</svg>